<svg xmlns="http://www.w3.org/2000/svg" viewBox="0 0 934 934"><defs><style>.cls-1{fill:#201a4a;}.cls-2{fill:#ffcd00;fill-rule:evenodd;}</style></defs><g id="Layer_2" data-name="Layer 2"><g id="Layer_1-2" data-name="Layer 1"><rect class="cls-1" width="934" height="934" rx="80"/><path class="cls-2" d="M472.35,175.92,390.63,94.2l-280,280.06H326.24l146.11-146.1A37,37,0,0,0,472.35,175.92Z"/><path class="cls-2" d="M390.63,654.31l81.72-81.71a37,37,0,0,0,0-52.24L326.24,374.26H110.58Z"/><path class="cls-2" d="M461.65,725.33l81.72,81.72L823.42,527H607.76L461.65,673.09A37,37,0,0,0,461.65,725.33Z"/><path class="cls-2" d="M543.37,246.94l-81.72,81.71a37,37,0,0,0,0,52.24L607.76,527H823.42Z"/></g></g></svg>