<svg width="181" height="62" viewBox="0 0 181 62" fill="none" xmlns="http://www.w3.org/2000/svg">
<g opacity="0.6">
<path d="M76.9776 31.3763C76.9776 39.8688 70.3338 46.1266 62.1807 46.1266C54.0272 46.1266 47.3833 39.8688 47.3833 31.3763C47.3833 22.824 54.0272 16.6259 62.1807 16.6259C70.3338 16.6259 76.9776 22.824 76.9776 31.3763ZM70.4999 31.3763C70.4999 26.0693 66.6496 22.4382 62.1807 22.4382C57.7113 22.4382 53.8611 26.0693 53.8611 31.3763C53.8611 36.6301 57.7113 40.3143 62.1807 40.3143C66.6496 40.3143 70.4999 36.6234 70.4999 31.3763Z" fill="#EA4335"/>
<path d="M108.899 31.3763C108.899 39.8688 102.256 46.1266 94.1021 46.1266C85.949 46.1266 79.3051 39.8688 79.3051 31.3763C79.3051 22.8306 85.949 16.6259 94.1021 16.6259C102.256 16.6259 108.899 22.824 108.899 31.3763ZM102.422 31.3763C102.422 26.0693 98.5714 22.4382 94.1021 22.4382C89.6332 22.4382 85.7829 26.0693 85.7829 31.3763C85.7829 36.6301 89.6332 40.3143 94.1021 40.3143C98.5714 40.3143 102.422 36.6234 102.422 31.3763Z" fill="#FBBC05"/>
<path d="M139.491 17.517V43.9988C139.491 54.8919 133.066 59.3408 125.472 59.3408C118.323 59.3408 114.02 54.5592 112.397 50.649L118.037 48.3015C119.041 50.7021 121.502 53.5352 125.465 53.5352C130.326 53.5352 133.339 50.536 133.339 44.8897V42.7683H133.113C131.663 44.557 128.87 46.1202 125.345 46.1202C117.97 46.1202 111.213 39.6959 111.213 31.4295C111.213 23.1033 117.97 16.6259 125.345 16.6259C128.863 16.6259 131.657 18.1887 133.113 19.9244H133.339V17.5236H139.491V17.517ZM133.798 31.4295C133.798 26.2356 130.333 22.4382 125.924 22.4382C121.455 22.4382 117.711 26.2356 117.711 31.4295C117.711 36.5702 121.455 40.3143 125.924 40.3143C130.333 40.3143 133.798 36.5702 133.798 31.4295Z" fill="#4285F4"/>
<path d="M149.633 1.99515V45.2224H143.315V1.99515H149.633Z" fill="#34A853"/>
<path d="M174.252 36.231L179.28 39.5827C177.657 41.9835 173.746 46.1201 166.99 46.1201C158.61 46.1201 152.352 39.6426 152.352 31.3696C152.352 22.5978 158.663 16.6191 166.265 16.6191C173.919 16.6191 177.663 22.7108 178.887 26.0028L179.559 27.6786L159.841 35.8453C161.35 38.8047 163.698 40.3143 166.99 40.3143C170.288 40.3143 172.576 38.6916 174.252 36.231ZM158.777 30.924L171.958 25.4508C171.233 23.6086 169.051 22.3251 166.484 22.3251C163.192 22.3251 158.61 25.2313 158.777 30.924Z" fill="#EA4335"/>
<path d="M23.469 27.5391V21.2811H44.5574C44.7635 22.3718 44.8697 23.6619 44.8697 25.0585C44.8697 29.7537 43.5861 35.5594 39.4498 39.6959C35.4263 43.8857 30.2856 46.1201 23.4757 46.1201C10.8533 46.1201 0.23938 35.8387 0.23938 23.2164C0.23938 10.594 10.8533 0.312622 23.4757 0.312622C30.4585 0.312622 35.433 3.05256 39.1705 6.62381L34.7547 11.0396C32.0745 8.5258 28.4434 6.57057 23.469 6.57057C14.2516 6.57057 7.0427 13.999 7.0427 23.2164C7.0427 32.4337 14.2516 39.8622 23.469 39.8622C29.4477 39.8622 32.8526 37.4614 35.034 35.2801C36.8029 33.5111 37.9668 30.984 38.4256 27.5325L23.469 27.5391Z" fill="#4285F4"/>
</g>
</svg>
