<svg width="181" height="45" viewBox="0 0 181 45" fill="none" xmlns="http://www.w3.org/2000/svg">
<path d="M178.355 41.3244C178.466 41.3254 178.576 41.3036 178.679 41.2603C178.781 41.2171 178.874 41.1533 178.95 41.0729C179.027 40.9925 179.087 40.8971 179.125 40.7928C179.163 40.6882 179.18 40.5771 179.173 40.4661C179.173 39.8577 178.806 39.5669 178.053 39.5669H176.836V42.7531H177.294V41.3643H177.856L177.869 41.3812L178.742 42.7531H179.231L178.292 41.333L178.355 41.3244ZM177.826 41.0051H177.295V39.928H177.967C178.315 39.928 178.711 39.9847 178.711 40.4397C178.711 40.9634 178.31 41.0051 177.823 41.0051" fill="#0A66C2"/>
<path d="M0 6.48312H6.75771V31.0983H19.2682V37.3348H0V6.48312Z" fill="#0A66C2"/>
<path d="M22.2559 16.4165H28.7478V37.3231H22.2559V16.4165ZM25.5018 6.02264C26.2466 6.0228 26.9747 6.24377 27.5939 6.65768C28.2132 7.07155 28.6957 7.65977 28.9807 8.34794C29.2656 9.03611 29.3401 9.7933 29.1947 10.5238C29.0493 11.2543 28.6906 11.9252 28.1639 12.4519C27.6372 12.9785 26.9661 13.3371 26.2356 13.4823C25.5051 13.6276 24.7479 13.553 24.0598 13.2679C23.3717 12.9829 22.7836 12.5002 22.3698 11.8808C21.956 11.2616 21.7352 10.5335 21.7352 9.78864C21.7352 9.29405 21.8326 8.80428 22.0219 8.34733C22.2112 7.89035 22.4886 7.47515 22.8384 7.12546C23.1882 6.77573 23.6035 6.49834 24.0604 6.30915C24.5174 6.11992 25.0072 6.02255 25.5018 6.02264Z" fill="#0A66C2"/>
<path d="M55.9041 6.47833H62.3962V24.9161L69.7537 16.4069H77.7131L69.1926 26.086L77.534 37.332H69.3745L62.4827 26.9976H62.3974V37.3305H55.9057L55.9041 6.47833Z" fill="#0A66C2"/>
<path d="M32.3475 16.4187H38.5818V19.2758H38.6702C39.293 18.209 40.1937 17.3313 41.2763 16.7365C42.3592 16.1417 43.583 15.8521 44.8175 15.8987C51.4006 15.8987 52.6124 20.23 52.6124 25.8571V37.3222H46.1203V27.1575C46.1203 24.7311 46.0759 21.6123 42.7393 21.6123C39.3647 21.6123 38.8441 24.2543 38.8441 26.9809V37.3194H32.3521L32.3475 16.4187Z" fill="#0A66C2"/>
<path d="M91.3847 24.438C91.3973 23.9113 91.3025 23.3876 91.1065 22.8986C90.9108 22.4095 90.6175 21.9653 90.2448 21.5929C89.8723 21.2205 89.4278 20.9277 88.9388 20.7321C88.4495 20.5365 87.9258 20.4422 87.3991 20.4549C86.2646 20.3843 85.1482 20.7624 84.2899 21.5074C83.4318 22.2525 82.9008 23.305 82.8115 24.438H91.3847ZM96.8841 33.7025C95.8051 35.0106 94.4489 36.0626 92.9134 36.782C91.378 37.5014 89.7018 37.8704 88.0062 37.8621C81.5144 37.8621 76.3167 33.5289 76.3167 26.8184C76.3167 20.108 81.5138 15.7767 88.0062 15.7767C94.0743 15.7767 97.8796 20.1047 97.8796 26.8184V28.8539H82.8115C82.9989 30.0083 83.5975 31.0559 84.4966 31.8039C85.3955 32.5518 86.5349 32.9497 87.704 32.9242C88.628 32.9184 89.5361 32.6819 90.3451 32.2355C91.1544 31.7894 91.8391 31.1477 92.337 30.3694L96.8841 33.7025Z" fill="#0A66C2"/>
<path d="M111.411 21.4702C108.165 21.4702 106.218 23.6375 106.218 26.7956C106.218 29.9536 108.164 32.1229 111.411 32.1229C114.658 32.1229 116.609 29.959 116.609 26.7956C116.609 23.6321 114.661 21.4702 111.411 21.4702ZM122.586 37.3194H116.609V34.5467H116.521C115.771 35.5551 114.798 36.377 113.679 36.9479C112.56 37.5188 111.323 37.8238 110.067 37.8388C103.829 37.8388 99.7202 33.3368 99.7202 26.9707C99.7202 21.1239 103.356 15.7552 109.334 15.7552C112.02 15.7552 114.53 16.4903 116.002 18.5279H116.087V6.4765H122.585L122.586 37.3194Z" fill="#0A66C2"/>
<path d="M166.413 37.3317H159.921V27.165C159.921 24.7406 159.878 21.6198 156.544 21.6198C153.163 21.6198 152.646 24.2612 152.646 26.9885V37.3308H146.154V16.4242H152.386V19.2813H152.473C153.097 18.2149 153.998 17.3377 155.081 16.7429C156.164 16.1482 157.388 15.8583 158.622 15.9042C165.202 15.9042 166.415 20.2321 166.415 25.8625L166.413 37.3317ZM138.829 13.5664C138.084 13.5665 137.355 13.3457 136.736 12.9319C136.116 12.518 135.633 11.9297 135.348 11.2414C135.063 10.553 134.988 9.79557 135.133 9.06472C135.278 8.33391 135.637 7.66256 136.164 7.1356C136.691 6.60865 137.362 6.24971 138.093 6.10421C138.823 5.9587 139.581 6.03319 140.269 6.31822C140.958 6.60322 141.546 7.086 141.96 7.70545C142.374 8.32493 142.595 9.05325 142.595 9.79836C142.595 10.2931 142.498 10.783 142.309 11.2401C142.12 11.6972 141.842 12.1126 141.493 12.4625C141.143 12.8124 140.728 13.09 140.27 13.2794C139.813 13.4688 139.323 13.5663 138.829 13.5664ZM142.075 37.3317H135.576V16.4242H142.075V37.3317ZM169.649 0.00298505H132.314C131.466 -0.00657794 130.65 0.32068 130.044 0.912847C129.437 1.50501 129.091 2.31364 129.081 3.16103V40.6514C129.091 41.499 129.437 42.3083 130.043 42.901C130.649 43.494 131.466 43.8216 132.314 43.8127H169.649C170.499 43.8235 171.318 43.4964 171.926 42.9038C172.535 42.3107 172.883 41.5008 172.895 40.6514V3.15833C172.883 2.30926 172.534 1.49971 171.926 0.907555C171.317 0.315403 170.498 -0.0109194 169.649 0.000278984" fill="#0A66C2"/>
<path d="M177.881 38.1477C177.091 38.1551 176.337 38.4754 175.782 39.0377C175.228 39.6003 174.918 40.3596 174.922 41.1496C174.926 41.9395 175.242 42.6957 175.802 43.2529C176.362 43.81 177.12 44.1229 177.91 44.1229C178.7 44.1229 179.458 43.81 180.017 43.2529C180.577 42.6957 180.894 41.9395 180.898 41.1496C180.901 40.3596 180.592 39.6003 180.038 39.0377C179.483 38.4754 178.728 38.1551 177.939 38.1477H177.881ZM177.881 43.7808C177.363 43.7894 176.854 43.644 176.419 43.3636C175.983 43.0829 175.64 42.6795 175.434 42.204C175.228 41.7288 175.167 41.203 175.26 40.6931C175.352 40.1832 175.594 39.7123 175.954 39.3399C176.315 38.9675 176.777 38.7104 177.284 38.6008C177.79 38.4913 178.318 38.5343 178.799 38.7245C179.281 38.915 179.696 39.2439 179.991 39.6697C180.286 40.0958 180.448 40.5995 180.457 41.1177C180.457 41.1327 180.457 41.1468 180.457 41.1615C180.471 41.8414 180.215 42.4988 179.745 42.9896C179.275 43.4805 178.629 43.7646 177.949 43.7793H177.882" fill="#0A66C2"/>
</svg>
