<svg width="181" height="39" viewBox="0 0 181 39" fill="none" xmlns="http://www.w3.org/2000/svg">
<path d="M64.117 22.1173L63.0453 25.1536H62.956C62.7773 24.4689 62.4501 23.427 61.9141 22.1768L56.169 7.7396H50.5429V30.7499H54.264V16.5508C54.264 15.6578 54.264 14.6457 54.2341 13.3954C54.2045 12.7703 54.1448 12.294 54.1152 11.9368H54.2045C54.3829 12.8298 54.5914 13.4847 54.7402 13.9015L61.6464 30.6904H64.2658L71.1122 13.7526C71.261 13.3657 71.4101 12.5917 71.5589 11.9368H71.6482C71.5589 13.6336 71.4992 15.1517 71.4696 16.0745V30.6605H75.4285V7.68008H70.0109L64.117 22.1173ZM79.1792 14.1694H83.049V30.6605H79.1792V14.1694ZM81.144 7.20379C80.489 7.20379 79.9533 7.44195 79.5066 7.8587C79.0602 8.27542 78.8221 8.81123 78.8221 9.46614C78.8221 10.0912 79.0602 10.627 79.5066 11.0438C79.9533 11.4605 80.489 11.6689 81.144 11.6689C81.7989 11.6689 82.3645 11.4308 82.781 11.0438C83.2277 10.627 83.4658 10.0912 83.4658 9.46614C83.4658 8.84102 83.2277 8.3052 82.781 7.8587C82.3941 7.44195 81.8285 7.20379 81.144 7.20379ZM96.772 14.0205C96.0573 13.8717 95.3133 13.7824 94.5989 13.7824C92.8426 13.7824 91.2352 14.1694 89.8954 14.9433C88.556 15.7173 87.4845 16.7889 86.7997 18.1285C86.0853 19.4978 85.7282 21.0754 85.7282 22.8913C85.7282 24.4689 86.0853 25.868 86.7701 27.148C87.4546 28.3981 88.4072 29.4104 89.6872 30.0949C90.9077 30.7797 92.3365 31.1368 93.944 31.1368C95.7896 31.1368 97.3672 30.7499 98.6173 30.0355L98.6472 30.0056V26.4336L98.4984 26.5526C97.9328 26.9693 97.2778 27.3267 96.6229 27.5349C95.9384 27.7731 95.3133 27.8923 94.7773 27.8923C93.2296 27.8923 92.009 27.4456 91.1458 26.4633C90.2528 25.5108 89.8064 24.201 89.8064 22.5638C89.8064 20.8671 90.2528 19.5275 91.1754 18.5452C92.0984 17.5629 93.3189 17.0568 94.8072 17.0568C96.0573 17.0568 97.3373 17.4736 98.4984 18.3071L98.6472 18.4261V14.6457L98.6173 14.6159C98.1114 14.4075 97.5458 14.1694 96.772 14.0205ZM109.542 13.9015C108.59 13.9015 107.697 14.1992 106.923 14.8243C106.268 15.3601 105.821 16.134 105.434 17.0568H105.405V14.1694H101.535V30.6605H105.405V22.2364C105.405 20.8075 105.702 19.6168 106.357 18.7536C107.012 17.8605 107.845 17.414 108.857 17.414C109.215 17.414 109.572 17.5033 110.018 17.5629C110.435 17.682 110.733 17.801 110.941 17.9498L111.09 18.0689V14.1992L111.001 14.1694C110.733 13.9908 110.197 13.9015 109.542 13.9015ZM120.08 13.8122C117.371 13.8122 115.198 14.6159 113.68 16.1936C112.132 17.7713 111.388 19.9443 111.388 22.6829C111.388 25.2429 112.162 27.3267 113.65 28.8448C115.138 30.3331 117.163 31.1069 119.693 31.1069C122.342 31.1069 124.455 30.3032 125.974 28.696C127.522 27.0885 128.266 24.9452 128.266 22.2959C128.266 19.6764 127.551 17.5926 126.093 16.0745C124.694 14.5564 122.64 13.8122 120.08 13.8122ZM123.175 26.4931C122.461 27.416 121.33 27.8624 119.931 27.8624C118.532 27.8624 117.401 27.416 116.597 26.4336C115.793 25.5108 115.406 24.1713 115.406 22.4745C115.406 20.7182 115.823 19.3787 116.597 18.4261C117.401 17.4736 118.502 16.9973 119.901 16.9973C121.27 16.9973 122.342 17.4438 123.116 18.3666C123.89 19.2894 124.307 20.6289 124.307 22.3852C124.247 24.1712 123.92 25.5703 123.175 26.4931ZM136.898 21.0159C135.678 20.5098 134.904 20.1229 134.547 19.7954C134.249 19.4978 134.1 19.081 134.1 18.5452C134.1 18.0987 134.279 17.6522 134.725 17.3545C135.172 17.0568 135.678 16.908 136.422 16.908C137.077 16.908 137.762 17.027 138.417 17.2057C139.071 17.3843 139.667 17.6522 140.143 18.0094L140.292 18.1285V14.4968L140.203 14.467C139.756 14.2885 139.161 14.1098 138.446 13.961C137.732 13.842 137.077 13.7824 136.541 13.7824C134.695 13.7824 133.177 14.2289 131.987 15.2112C130.796 16.134 130.23 17.3843 130.23 18.8429C130.23 19.6168 130.35 20.3015 130.617 20.867C130.885 21.4326 131.272 21.9685 131.808 22.415C132.344 22.8317 133.118 23.308 134.19 23.7545C135.083 24.1415 135.767 24.4392 136.184 24.6773C136.601 24.9154 136.869 25.1833 137.077 25.3917C137.226 25.6298 137.315 25.9275 137.315 26.3145C137.315 27.416 136.482 27.9517 134.785 27.9517C134.13 27.9517 133.445 27.8325 132.642 27.5648C131.838 27.2968 131.094 26.9099 130.469 26.4633L130.32 26.3443V30.1248L130.409 30.1544C130.975 30.4224 131.659 30.6011 132.493 30.8093C133.326 30.9581 134.07 31.0773 134.725 31.0773C136.72 31.0773 138.357 30.6307 139.518 29.6485C140.709 28.696 141.334 27.4755 141.334 25.8978C141.334 24.7964 141.036 23.814 140.381 23.0698C139.518 22.3554 138.446 21.6112 136.898 21.0159ZM151.544 13.8122C148.835 13.8122 146.662 14.6159 145.144 16.1936C143.626 17.7713 142.852 19.9443 142.852 22.6829C142.852 25.2429 143.626 27.3267 145.114 28.8448C146.603 30.3331 148.627 31.1069 151.157 31.1069C153.806 31.1069 155.92 30.3032 157.438 28.696C158.986 27.0885 159.73 24.9452 159.73 22.2959C159.73 19.6764 159.015 17.5926 157.557 16.0745C156.158 14.5564 154.104 13.8122 151.544 13.8122ZM154.61 26.4931C153.895 27.416 152.765 27.8624 151.365 27.8624C149.937 27.8624 148.835 27.416 148.031 26.4336C147.228 25.5108 146.841 24.1713 146.841 22.4745C146.841 20.7182 147.257 19.3787 148.031 18.4261C148.835 17.4736 149.937 16.9973 151.335 16.9973C152.675 16.9973 153.777 17.4438 154.55 18.3666C155.325 19.2894 155.741 20.6289 155.741 22.3852C155.741 24.1712 155.354 25.5703 154.61 26.4931ZM180.418 17.3545V14.1694H176.519V9.28752L176.4 9.31728L172.709 10.4187L172.619 10.4485V14.1694H166.785V12.0857C166.785 11.1331 167.023 10.3889 167.44 9.91264C167.857 9.43635 168.482 9.19822 169.256 9.19822C169.791 9.19822 170.357 9.31728 170.982 9.5852L171.131 9.67451V6.31078L171.042 6.28102C170.506 6.1024 169.791 5.98334 168.869 5.98334C167.708 5.98334 166.695 6.25126 165.773 6.69776C164.85 7.20379 164.165 7.88846 163.659 8.81126C163.153 9.70427 162.885 10.7164 162.885 11.8773V14.1694H160.177V17.3247H162.885V30.6605H166.785V17.3545H172.619V25.8382C172.619 29.3211 174.257 31.0773 177.531 31.0773C178.067 31.0773 178.632 30.988 179.168 30.8987C179.734 30.7797 180.15 30.6307 180.389 30.5117L180.418 30.4819V27.2968L180.27 27.416C180.031 27.5648 179.823 27.6837 179.466 27.7731C179.168 27.8624 178.9 27.8923 178.692 27.8923C177.918 27.8923 177.382 27.7136 176.995 27.2669C176.638 26.8504 176.459 26.1657 176.459 25.1536V17.3545H180.418Z" fill="#737373"/>
<path d="M0.652771 0H18.9002V18.2474H0.652771V0Z" fill="#F25022"/>
<path d="M20.8054 0H39.0528V18.2474H20.8054V0Z" fill="#7FBA00"/>
<path d="M0.652771 20.1526H18.9002V38.4H0.652771V20.1526Z" fill="#00A4EF"/>
<path d="M20.8054 20.1526H39.0528V38.4H20.8054V20.1526Z" fill="#FFB900"/>
</svg>
