<svg width="182" height="26" viewBox="0 0 182 26" fill="none" xmlns="http://www.w3.org/2000/svg">
<path d="M13.2202 9.39784C13.2202 7.16563 11.7089 5.24256 9.37405 5.24256H5.56265V13.5519H9.37405C11.7089 13.5519 13.2202 11.6301 13.2202 9.39784ZM0 0.710144H10.0605C15.3832 0.710144 18.8174 4.72813 18.8174 9.39784C18.8174 14.0676 15.3832 18.0843 10.0605 18.0843H5.56265V24.7464H0V0.710144Z" fill="#FF424D"/>
<path d="M34.9215 7.57744L31.9683 17.4672H37.8055L34.9215 7.57744ZM40.1069 24.7464L39.1807 21.8277H30.6302L29.7027 24.7464H23.7618L32.3467 0.710144H37.4629L46.1506 24.7464H40.1069Z" fill="#FF424D"/>
<path d="M55.4902 5.51716H50.066V0.710144H66.5127V5.51716H61.0527V24.7464H55.4902V5.51716Z" fill="#FF424D"/>
<path d="M88.3864 9.39784C88.3864 7.16563 86.8749 5.24256 84.5398 5.24256H80.7281V13.5519H84.5398C86.8749 13.5519 88.3864 11.6301 88.3864 9.39784ZM75.166 0.710144H85.2622C90.5837 0.710144 94.0178 4.72813 94.0178 9.39784C94.0178 12.7628 92.2321 15.7495 89.2441 17.158L94.0528 24.7464H87.5973L83.3379 18.0843H80.7281V24.7464H75.166V0.710144Z" fill="#FF424D"/>
<path d="M109.024 5.17451V10.6333H118.123V14.9951H109.024V20.2818H118.123V24.7464H103.461V0.710144H118.123V5.17451H109.024Z" fill="#FF424D"/>
<path d="M146.933 12.6365C146.933 8.6877 144.254 5.01355 139.894 5.01355C135.498 5.01355 132.855 8.6877 132.855 12.6365C132.855 16.5852 135.498 20.2594 139.894 20.2594C144.254 20.2594 146.933 16.5852 146.933 12.6365ZM127.154 12.6365C127.154 6.04366 131.893 0 139.894 0C147.859 0 152.598 6.04366 152.598 12.6365C152.598 19.2292 147.859 25.2729 139.894 25.2729C131.893 25.2729 127.154 19.2292 127.154 12.6365Z" fill="#FF424D"/>
<path d="M176.328 16.3678V0.710144H181.854V24.7464H176.052L167.398 9.29398V24.7464H161.835V0.710144H167.638L176.328 16.3678Z" fill="#FF424D"/>
</svg>
