<svg width="182" height="41" viewBox="0 0 182 41" fill="none" xmlns="http://www.w3.org/2000/svg">
<path fill-rule="evenodd" clip-rule="evenodd" d="M73.5534 6.01114C69.5833 2.04148 64.3663 0 59.1485 0H59.0921C53.8751 0 48.657 1.98483 44.688 6.01114C36.7491 14.0072 36.7491 26.8802 44.688 34.8762C52.6272 42.8157 65.5567 42.8157 73.4959 34.8762C81.4923 26.9369 81.4923 14.0072 73.5534 6.01114ZM67.7687 29.0918C63.0048 33.8555 55.2355 33.8555 50.4727 29.0918C45.7085 24.3283 45.7085 16.5591 50.4727 11.7956C55.2355 7.03198 63.0048 7.03198 67.7687 11.7956C72.5894 16.5591 72.5894 24.3283 67.7687 29.0918Z" fill="#2D8CFF"/>
<path fill-rule="evenodd" clip-rule="evenodd" d="M116.369 6.01114C112.4 2.04148 107.182 0.0566537 101.965 0C96.7477 0 91.5296 1.98483 87.5609 6.01114C79.6217 14.0072 79.6217 26.8802 87.5609 34.8762C95.4998 42.8157 108.43 42.8157 116.369 34.8762C124.309 26.9369 124.309 14.0072 116.369 6.01114ZM110.585 29.0918C105.821 33.8555 98.0521 33.8555 93.2878 29.0918C88.525 24.3283 88.525 16.5591 93.2878 11.7956C98.0521 7.03198 105.821 7.03198 110.585 11.7956C115.404 16.5591 115.404 24.3283 110.585 29.0918Z" fill="#2D8CFF"/>
<path fill-rule="evenodd" clip-rule="evenodd" d="M8.16615 40.7745L10.2077 40.8881H40.7745L40.6606 38.8464C40.3767 35.5006 37.9948 33.062 34.6498 32.8353L32.6078 32.7217H14.2341L38.7325 8.28016L38.6189 6.23856C38.4486 2.83599 35.9539 0.3975 32.6078 0.227429L30.5658 0.114014H0L0.113414 2.1555C0.397008 5.5013 2.77874 7.99658 6.12466 8.16676L8.16615 8.28016H26.5395L2.04159 32.7784L2.15501 34.8201C2.32508 38.1092 4.76369 40.5479 8.16615 40.7745Z" fill="#2D8CFF"/>
<path fill-rule="evenodd" clip-rule="evenodd" d="M147.729 12.3049C148.41 13.4958 148.636 14.8569 148.693 16.3879L148.806 18.4295V32.7203L148.92 34.7617C149.147 38.1075 151.585 40.5462 154.931 40.7731L156.973 40.8864V18.4295L157.086 16.3879C157.143 14.8569 157.369 13.4958 158.107 12.3049C159.524 9.86638 162.134 8.27857 165.139 8.27857C168.144 8.27857 170.809 9.92315 172.227 12.3616C172.908 13.5526 173.135 14.9703 173.191 16.4447L173.305 18.4862V32.777L173.419 34.8184C173.645 38.1645 176.084 40.6595 179.43 40.8297L181.471 40.9431V18.5429V16.5014C181.471 7.48465 174.155 0.169067 165.139 0.169067C160.262 0.169067 155.895 2.32408 152.889 5.66989C149.94 2.26731 145.518 0.169067 140.64 0.169067C137.237 0.169067 134.119 1.18992 131.51 2.94791C129.922 1.18992 126.406 0.169067 124.365 0.169067V40.9997L126.406 40.8864C129.809 40.6595 132.304 38.2778 132.418 34.8754L132.531 32.8336V18.5429L132.644 16.5014C132.701 14.9703 132.928 13.6092 133.665 12.4183C135.083 9.97978 137.691 8.33523 140.697 8.33523C143.702 8.22179 146.312 9.86638 147.729 12.3049Z" fill="#2D8CFF"/>
</svg>
